<?xml version="1.0" standalone="no"?>
<!DOCTYPE svg PUBLIC "-//W3C//DTD SVG 20010904//EN"
 "http://www.w3.org/TR/2001/REC-SVG-20010904/DTD/svg10.dtd">
<svg version="1.0" xmlns="http://www.w3.org/2000/svg"
 width="261.000000pt" height="261.000000pt" viewBox="0 0 261.000000 261.000000"
 preserveAspectRatio="xMidYMid meet">
<metadata>
Created by potrace 1.14, written by Peter Selinger 2001-2017
</metadata>
<g transform="translate(0.000000,261.000000) scale(0.100000,-0.100000)"
fill="#000000" stroke="none">
<path d="M856 2463 c-1 -1 -53 -3 -116 -4 -91 -1 -128 -6 -177 -24 -202 -73
-344 -241 -375 -446 -9 -57 -13 -180 -12 -379 1 -162 3 -299 4 -305 0 -5 12
27 26 73 32 110 86 213 140 266 8 9 12 20 9 26 -4 6 -2 9 3 8 5 -2 25 11 44
28 18 17 57 46 86 66 28 19 49 38 44 43 -4 5 -2 5 4 2 15 -9 137 46 127 57 -4
4 -1 4 8 1 8 -3 45 1 82 9 54 11 214 14 829 14 728 1 763 2 787 20 13 10 34
31 45 46 20 26 21 42 22 262 1 232 1 234 -20 234 -213 2 -1558 4 -1560 3z"/>
<path d="M847 1614 c-1 -1 -30 -4 -63 -8 -147 -15 -271 -75 -383 -185 -90 -88
-138 -158 -174 -256 -38 -105 -46 -150 -48 -266 0 -104 23 -197 78 -309 75
-150 214 -277 373 -338 108 -42 112 -42 976 -39 l829 2 1 215 c0 118 -3 230
-8 248 -5 20 -23 43 -48 61 l-39 28 -733 1 c-403 1 -743 3 -755 6 -92 20 -137
140 -82 217 42 60 36 59 631 59 599 0 585 -1 632 63 19 26 21 46 26 253 3 124
3 231 0 237 -4 10 -141 13 -608 13 -332 0 -604 -1 -605 -2z"/>
</g>
</svg>
