<svg width="258" height="82" viewBox="0 0 258 82" fill="none" xmlns="http://www.w3.org/2000/svg">
<g clip-path="url(#clip0_29_90)">
<path opacity="0.2" fill-rule="evenodd" clip-rule="evenodd" d="M238.65 45.1C238.65 43.4689 236.611 41.9047 232.983 40.7513C229.354 39.598 224.432 38.95 219.3 38.95L25.8 38.95C20.6681 38.95 15.7463 39.598 12.1175 40.7513C8.48866 41.9047 6.44999 43.4689 6.44999 45.1C6.44999 46.7311 8.48866 48.2954 12.1175 49.4487C15.7463 50.6021 20.6681 51.25 25.8 51.25L219.3 51.25C224.432 51.25 229.354 50.6021 232.983 49.4487C236.611 48.2954 238.65 46.7311 238.65 45.1Z" fill="#193F6E"/>
<path fill-rule="evenodd" clip-rule="evenodd" d="M251.55 41C251.55 40.4563 250.87 39.9349 249.661 39.5504C248.451 39.166 246.811 38.95 245.1 38.95L12.9 38.95C11.1893 38.95 9.54874 39.166 8.33913 39.5504C7.12952 39.9349 6.44997 40.4563 6.44997 41C6.44997 41.5437 7.12952 42.0651 8.33913 42.4496C9.54874 42.834 11.1893 43.05 12.9 43.05L245.1 43.05C246.811 43.05 248.451 42.834 249.661 42.4496C250.87 42.0651 251.55 41.5437 251.55 41Z" fill="#193F6E"/>
</g>
<defs>
<clipPath id="clip0_29_90">
<rect width="82" height="258" fill="white" transform="matrix(0 1 -1 0 258 0)"/>
</clipPath>
</defs>
</svg>
